<?xml version="1.0" standalone="no"?> <!DOCTYPE svg PUBLIC "-//W3C//DTD SVG 1.0//EN" "http://www.w3.org/TR/2001/REC-SVG-20010904/DTD/svg10.dtd" > <svg xmlns="http://www.w3.org/2000/svg" width="100%" height="100%">
<defs >
<font id="pfagorasansproitalic" horiz-adv-x="409" ><font-face
    font-family="PF Agora Sans Pro"
    units-per-em="1000"
    panose-1="2 0 5 3 0 0 0 9 0 4"
    ascent="750"
    descent="-250"
    alphabetic="0" />
<missing-glyph horiz-adv-x="425" d="M0 685H425V0H0V685ZM359 40L213 306L66 40H359ZM359 645H66L213 379L359 645ZM39 72L188 343L39 614V72ZM386 70V617L237 342L386 70Z" />
<glyph unicode=" " glyph-name="space" horiz-adv-x="263" />
<glyph unicode="!" glyph-name="exclam" horiz-adv-x="218" d="M82 -10Q62 -10 49 3T36 36Q36 59 52 76T95 94Q115 94 127 81T140 49Q140 25 123 8T82 -10ZM79 171L97 390L129 696H207L167 390L132 171H79Z" />
<glyph unicode="&quot;" glyph-name="quotedbl" horiz-adv-x="264" d="M204 482L215 685H286L249 482H204ZM106 482L117 685H189L149 482H106Z" />
<glyph unicode="#" glyph-name="numbersign" horiz-adv-x="517" d="M431 410L374 242H447L432 195H358L294 0H244L307 195H165L101 0H51L115 195H43L57 242H131L188 410H110L124 456H203L262 628H312L254 456H396L455 628H505L446 456H514L500 410H431ZM182 242H324L380
410H238L182 242Z" />
<glyph unicode="$" glyph-name="dollar" horiz-adv-x="541" d="M347 731H384L376 666Q406 664 438 654T493 630L467 575Q432 592 411 598T369 606L339 365Q367 353 393 341T440 310T472 265T484 200Q484 156 469 123T427 66T367 29T295 8L285 -75H248L347 731ZM215
-75H179L189 8Q151 12 115 24T47 57L78 110Q120 86 148 79T197 69L229 329Q203 339 180 352T140 384T114 427T104 483Q104 520 117 550T153 604T206 642T270 664L278 731H314L215 -75ZM303 71Q353 79 385 111T417 196Q417 236 393 258T331 296L303 71ZM262 601Q245
596 229 587T200 563T180 530T172 490Q172 450 190 431T237 398L262 601Z" />
<glyph unicode="%" glyph-name="percent" horiz-adv-x="800" d="M241 670Q282 670 308 657T350 622T371 572T377 515Q377 476 369 432T341 350T286 287T196 262Q155 262 128 274T85 307T63 355T56 412Q56 431 58 457T68 512T88 569T121 619T171 656T241 670ZM240
617Q212 617 193 605T160 572T139 528T127 480T122 437T121 407Q121 365 138 340T202 314Q235 314 256 333T289 381T307 444T312 508Q312 528 309 547T299 582T277 607T240 617ZM291 -22H236L616 701H669L291 -22ZM688 404Q729 404 755 391T797 356T818 306T824
250Q824 210 816 165T788 83T733 21T643 -4Q602 -4 575 8T532 40T510 88T503 145Q503 164 505 190T515 246T535 303T568 353T618 390T688 404ZM687 351Q645 351 621 324T586 262T571 191T568 140Q568 100 585 75T649 49Q682 49 703 68T736 115T754 178T759 242Q759
261 756 280T746 316T724 341T687 351Z" />
<glyph unicode="&amp;" glyph-name="ampersand" horiz-adv-x="848" d="M413 302Q439 308 462 310T511 313Q540 313 573 309T641 296Q648 319 650 343T653 390Q653 439 640 482T599 557T525 607T416 626Q345 626 290 600T195 532T130 433T93 317Q79 318 65 319T36
323Q45 387 72 451T147 567T263 651T423 683Q503 683 559 659T650 596T702 504T719 396Q719 341 705 288Q712 287 718 287T730 286Q776 286 800 301T845 345L880 317Q856 275 820 254T724 233Q707 233 688 236Q668 186 635 142T559 63T464 9T353 -11Q296 -11 257
5T194 49T158 111T147 186Q147 259 166 313T216 405T282 460T354 479Q379 479 398 471T429 449T448 420T455 388Q455 369 447 348T413 304V302ZM351 235Q340 238 335 253T325 280Q355 302 372 324T390 368Q390 391 377 402T345 414Q325 414 302 402T260 364T228
296T215 195Q215 119 253 82T363 44Q401 44 439 59T513 100T576 164T623 246Q589 254 556 258T494 262Q459 262 425 256T351 235Z" />
<glyph unicode="&apos;" glyph-name="quotesingle" horiz-adv-x="187" d="M106 482L117 685H189L150 482H106Z" />
<glyph unicode="(" glyph-name="parenleft" horiz-adv-x="276" d="M132 156Q132 95 139 46T155 -40T175 -103T193 -146L155 -171Q143 -153 127 -122T97 -46T72 55T62 181Q62 287 85 374T140 528T206 641T264 713L294 690Q279 670 252 625T198 511T152 354T132 156Z" />
<glyph unicode=")" glyph-name="parenright" horiz-adv-x="278" d="M154 393Q154 452 147 500T130 586T109 650T91 691L127 713Q140 693 157 662T189 587T214 489T224 370Q224 260 200 170T142 12T74 -103T19 -171L-12 -145Q2 -125 30 -81T85 31T133 189T154 393Z" />
<glyph unicode="*" glyph-name="asterisk" horiz-adv-x="378" d="M362 627Q373 609 375 591T376 545L259 538L330 459Q301 426 261 410L226 516L166 411Q147 419 133 429T107 459Q130 479 152 499T198 539L90 554Q95 578 103 597T125 634L216 577L208 690Q228
695 249 695T290 690Q281 662 272 634T253 577L362 627Z" />
<glyph unicode="+" glyph-name="plus" horiz-adv-x="542" d="M312 270L291 102H233L253 270H94L101 328H260L280 490H339L319 328H476L469 270H312Z" />
<glyph unicode="," glyph-name="comma" horiz-adv-x="204" d="M85 98Q108 98 121 83T134 42Q134 21 125 -1T99 -44T62 -82T19 -110L3 -84Q23 -66 37 -48T57 -4Q27 4 27 38Q27 61 43 79T85 98Z" />
<glyph unicode="-" glyph-name="hyphen" horiz-adv-x="355" d="M54 230L63 298H314L305 230H54Z" />
<glyph unicode="." glyph-name="period" horiz-adv-x="202" d="M83 97Q104 97 116 83T129 49Q129 24 111 7T71 -10Q51 -10 39 3T26 37Q26 62 43 79T83 97Z" />
<glyph unicode="/" glyph-name="slash" horiz-adv-x="323" d="M37 -28H-15L323 701H375L37 -28Z" />
<glyph unicode="0" glyph-name="zero" horiz-adv-x="542" d="M319 674Q384 674 424 650T486 586T517 497T525 399Q525 334 513 263T469 131T386 32T256 -7Q195 -7 155 13T90 66T56 144T44 237Q44 268 47 313T61 406T90 503T139 589T214 650T319 674ZM317 609Q270
609 238 586T183 527T149 447T131 361T124 284T122 231Q123 193 130 161T154 106T196 70T263 57Q299 57 327 72T375 114T409 175T431 248T442 326T446 401Q446 437 441 474T422 541T383 590T317 609Z" />
<glyph unicode="1" glyph-name="one" horiz-adv-x="542" d="M285 582L128 558L124 606L300 664H372L292 0H213L285 582Z" />
<glyph unicode="2" glyph-name="two" horiz-adv-x="542" d="M292 675Q333 675 367 666T426 637T465 588T479 519Q479 475 461 432T414 346T348 264T271 188T193 120T125 60L449 61L442 0H15L21 55Q52 83 92 117T174 188T256 266T328 347T379 427T398 504Q398 556
365 581T278 606Q254 606 211 597T106 553L80 603Q144 647 200 661T292 675Z" />
<glyph unicode="3" glyph-name="three" horiz-adv-x="542" d="M327 373Q387 363 427 321T467 213Q467 169 449 129T396 57T314 8T205 -10Q146 -10 95 0T9 30Q16 44 21 57T33 84Q93 63 130 58T198 53Q235 53 269 63T330 94T372 142T388 206Q388 266 346 299T237
333Q225 333 212 332T185 329Q182 343 180 356T175 383Q229 392 269 408T336 443T376 485T389 528Q389 545 383 561T364 589T329 608T276 615Q242 615 203 606T109 572Q103 585 98 597T87 623Q138 652 191 666T290 680Q338 680 371 669T426 640T457 598T467 547Q467
524 460 500T435 453T392 411T327 378V373Z" />
<glyph unicode="4" glyph-name="four" horiz-adv-x="542" d="M414 188L393 0H315L339 188H29Q31 202 32 216T36 245L391 664H473L421 248H516L509 188H414ZM382 571L331 509Q275 443 221 379T111 248H346Q356 329 366 409T387 571H382Z" />
<glyph unicode="5" glyph-name="five" horiz-adv-x="542" d="M262 354Q234 354 205 347T147 327L104 359L148 664H499L490 601L209 602L180 397Q193 401 221 409T292 417Q329 417 363 407T423 375T464 319T480 237Q480 174 457 128T398 51T315 6T220 -9Q166 -9
117 0T26 31L51 90Q108 69 143 64T208 59Q249 59 284 69T346 100T387 154T402 232Q402 263 391 286T361 324T317 346T262 354Z" />
<glyph unicode="6" glyph-name="six" horiz-adv-x="542" d="M153 366Q188 386 231 400T322 415Q357 415 388 405T443 374T480 320T494 240Q494 183 475 137T423 59T345 10T248 -7Q192 -7 156 10T97 58T66 131T57 223Q57 317 76 399T134 542T229 638T358 674Q410
674 445 663T497 643L476 586Q443 600 411 605T356 610Q302 610 265 583T204 518T166 438T148 369L153 366ZM300 352Q264 352 235 345T186 328T153 310T140 301Q138 282 136 261T133 217Q133 188 138 160T157 108T195 71T257 56Q296 56 325 69T375 107T406 163T416
234Q416 287 391 319T300 352Z" />
<glyph unicode="7" glyph-name="seven" horiz-adv-x="542" d="M113 601L121 664H511L517 605L178 0H99L438 602L113 601Z" />
<glyph unicode="8" glyph-name="eight" horiz-adv-x="542" d="M325 611Q285 611 260 598T219 566T199 528T193 497Q193 475 203 459T232 430T275 404T328 378Q388 417 411 451T435 516Q435 532 430 549T412 580T378 602T325 611ZM250 53Q290 53 320 64T370 93T401
136T411 186Q411 213 401 234T370 273T317 307T239 341Q205 321 182 297T146 249T127 202T121 159Q121 115 153 84T250 53ZM335 676Q371 676 403 667T459 638T497 590T511 521Q511 479 483 435T393 349Q434 326 460 287T487 191Q487 155 472 120T427 56T351 10T246
-8Q195 -8 157 4T93 39T54 91T41 155Q41 182 49 212T76 271T121 326T186 370Q150 393 132 422T113 489Q113 528 129 562T175 622T246 661T335 676Z" />
<glyph unicode="9" glyph-name="nine" horiz-adv-x="542" d="M412 301Q398 293 379 284T336 268T289 256T242 251Q207 251 176 260T121 291T85 345T71 425Q71 482 89 528T141 606T218 656T316 674Q371 674 408 657T467 609T498 536T507 443Q507 349 488 267T430
125T335 29T205 -6Q154 -6 114 4T59 24L79 81Q113 67 149 62T208 57Q262 57 299 84T361 149T398 229T415 298L412 301ZM264 314Q300 314 329 321T378 338T410 356T424 365Q426 384 428 403T430 444Q430 473 426 502T408 554T370 592T306 607Q267 607 238 594T188
557T158 501T147 429Q147 377 173 346T264 314Z" />
<glyph unicode=":" glyph-name="colon" horiz-adv-x="199" d="M88 99Q108 99 120 86T133 53Q133 28 117 10T76 -8Q55 -8 43 6T30 40Q30 65 47 82T88 99ZM127 413Q147 413 159 400T172 367Q172 342 155 324T114 306Q94 306 81 320T68 355Q68 380 86 396T127 413Z" />
<glyph unicode=";" glyph-name="semicolon" horiz-adv-x="199" d="M86 98Q109 98 122 83T135 42Q135 21 126 -1T100 -44T63 -82T20 -110L3 -84Q24 -66 38 -48T58 -4Q28 4 28 38Q28 61 44 79T86 98ZM127 413Q147 413 159 400T172 367Q172 342 155 324T114 306Q94
306 81 320T68 355Q68 380 86 396T127 413Z" />
<glyph unicode="&lt;" glyph-name="less" horiz-adv-x="542" d="M450 71L88 272L94 323L505 523L496 452L165 296Q169 294 191 282T244 253T311 217T378 180T432 151T458 137L450 71Z" />
<glyph unicode="=" glyph-name="equal" horiz-adv-x="542" d="M92 345L99 403H490L483 345H92ZM74 200L81 257H472L465 200H74Z" />
<glyph unicode="&gt;" glyph-name="greater" horiz-adv-x="542" d="M72 141L405 299Q401 301 379 313T326 341T258 377T190 413T136 441T110 455L119 523L481 323L474 272L64 71L72 141Z" />
<glyph unicode="?" glyph-name="question" horiz-adv-x="428" d="M277 704Q365 704 406 671T447 577Q447 551 438 529T414 486T379 447T338 411Q312 390 287 369T242 326T209 277T196 220Q196 209 196 199T197 174L132 165Q129 196 129 221Q129 258 138 286T165
339T210 389T276 444Q312 472 339 498T369 560Q369 602 341 619T264 637Q235 637 198 632T108 610L95 672Q144 689 192 696T277 704ZM170 92Q190 92 203 79T216 47Q216 23 198 7T158 -10Q139 -10 127 2T114 34Q114 57 130 74T170 92Z" />
<glyph unicode="@" glyph-name="at" horiz-adv-x="924" d="M641 145Q611 145 591 154T558 179T541 217T534 265Q517 227 498 204T459 169T420 152T386 147Q337 147 307 182T276 290Q276 346 289 396T328 484T393 544T483 566Q506 566 529 561T578 547L586 569L643
563Q635 526 627 482T611 397T600 323T595 275Q595 241 608 222T656 202Q675 202 700 213T749 250T787 317T803 417Q803 477 785 523T731 602T645 652T531 669Q449 669 378 640T255 561T172 442T142 296Q142 232 161 179T218 88T307 28T424 6Q447 7 479 10T550
27L566 -21Q534 -36 493 -42T416 -49Q337 -49 275 -24T169 48T104 156T81 293Q81 385 116 464T213 601T357 693T531 726Q608 726 670 705T775 644T842 548T865 423Q865 354 845 302T793 215T721 163T641 145ZM405 204Q420 204 437 214T473 246T509 303T545 390Q549
416 554 441T564 493Q541 503 519 506T482 510Q442 510 416 489T375 435T353 366T347 298Q347 250 363 227T405 204Z" />
<glyph unicode="A" glyph-name="A" horiz-adv-x="562" d="M441 0Q432 45 425 89T409 179H147Q128 134 110 90T72 0H-15Q66 186 142 357T288 685H393Q425 512 458 342T526 0H441ZM398 244Q392 282 386 320T372 397Q366 435 360 472T346 548L334 615H332Q331 613
330 610T325 599T317 579T304 547Q295 526 284 498T256 432Q239 394 220 348T176 244H398Z" />
<glyph unicode="B" glyph-name="B" horiz-adv-x="591" d="M136 684H374Q465 684 507 641T549 527Q549 476 525 432T438 358Q466 348 483 331T511 293T524 250T528 208Q528 163 510 125T463 59T395 16T317 0H53L136 684ZM173 323L141 65H297Q336 65 364 77T411
110T438 158T447 214Q447 236 440 256T418 291T381 314T329 323H173ZM210 619L181 387H320Q389 387 427 423T466 521Q466 565 439 592T349 619H210Z" />
<glyph unicode="C" glyph-name="C" horiz-adv-x="575" d="M409 696Q463 696 504 688T574 668L552 605Q514 619 477 623T409 628Q347 628 300 603T221 530T173 415T156 265Q156 220 164 183T194 118T250 75T341 60Q354 60 373 61T414 66T459 73T502 84L515 24Q497
17 473 11T421 1T368 -5T318 -8Q249 -8 202 11T125 66T84 152T71 266Q71 302 76 347T96 440T135 534T196 616T286 674T409 696Z" />
<glyph unicode="D" glyph-name="D" horiz-adv-x="625" d="M53 0L137 685H353Q422 685 467 665T539 609T576 526T587 422Q587 338 570 262T515 127T414 35T260 0H53ZM213 620L145 66H258Q274 66 298 69T349 83T403 116T452 176T487 271T501 409Q501 484 483 526T439
589T384 615T331 620H213Z" />
<glyph unicode="E" glyph-name="E" horiz-adv-x="534" d="M53 0L136 684H533L526 620H211L183 393H455L447 331H175L142 65H480L473 0H53Z" />
<glyph unicode="F" glyph-name="F" horiz-adv-x="518" d="M53 0L136 684H533L526 619H211L182 388H446L438 324H174L135 0H53Z" />
<glyph unicode="G" glyph-name="G" horiz-adv-x="610" d="M424 696Q478 696 519 688T589 668L566 605Q526 619 490 623T423 628Q356 628 306 603T223 530T174 415T157 266Q157 221 165 184T192 119T245 77T331 62Q344 62 360 63T392 66T424 70T451 77L485 352H561L520
24Q469 7 417 0T316 -8Q248 -8 201 11T125 66T83 152T70 264Q70 301 75 348T95 443T135 536T200 617T295 674T424 696Z" />
<glyph unicode="H" glyph-name="H" horiz-adv-x="633" d="M446 0L486 327H176Q165 245 156 164T137 0H53L136 684H220Q212 611 203 540T184 396H494L529 684H614L531 0H446Z" />
<glyph unicode="I" glyph-name="I" horiz-adv-x="256" d="M62 0L146 685H228L144 0H62Z" />
<glyph unicode="J" glyph-name="J" horiz-adv-x="300" d="M179 685H262L193 131Q185 66 169 17T122 -69T46 -134T-69 -180L-90 -117Q-30 -92 6 -68T63 -16T93 46T109 126L179 685Z" />
<glyph unicode="K" glyph-name="K" horiz-adv-x="563" d="M134 0H53L137 685H218L179 375L508 685H601L310 412L527 0H437L252 356L168 278L134 0Z" />
<glyph unicode="L" glyph-name="L" horiz-adv-x="508" d="M53 0L136 684H218L142 63H483L476 0H53Z" />
<glyph unicode="M" glyph-name="M" horiz-adv-x="796" d="M398 163L447 277L632 685H722L723 0H642L649 416L651 555H646L588 420L418 64H339L254 419L225 552H220L198 419L119 0H36L176 685H266L367 276L390 163H398Z" />
<glyph unicode="N" glyph-name="N" horiz-adv-x="662" d="M496 139L562 684H642L559 0H478Q426 103 375 206T272 413L203 557Q202 557 202 557T199 556L131 0H53L136 684H218Q269 586 317 490T414 296Q433 257 452 218T492 139H496Z" />
<glyph unicode="O" glyph-name="O" horiz-adv-x="677" d="M394 695Q463 695 510 673T585 613T625 524T637 415Q637 327 617 250T556 116T457 25T321 -8Q253 -8 206 10T128 64T83 148T69 260Q69 340 87 418T144 557T245 657T394 695ZM393 631Q324 631 278 597T204
509T165 389T153 259Q153 159 193 108T323 57Q384 57 427 87T499 167T539 282T552 417Q552 459 546 497T521 565T472 613T393 631Z" />
<glyph unicode="P" glyph-name="P" horiz-adv-x="538" d="M354 685Q441 685 488 640T536 505Q536 471 525 432T487 359T418 303T313 281H169L136 0H53L137 685H354ZM211 620L177 345H309Q333 345 358 352T405 378T439 426T452 503Q452 563 421 591T339 620H211Z" />
<glyph unicode="Q" glyph-name="Q" horiz-adv-x="678" d="M394 695Q463 695 510 673T585 613T625 524T637 415Q637 347 625 286T589 173T530 82T449 20L588 -20L553 -91L321 -8Q253 -8 206 10T128 64T83 148T69 260Q69 340 87 418T144 557T245 657T394 695ZM393
631Q324 631 278 597T204 509T165 389T153 259Q153 159 193 108T323 57Q384 57 427 87T499 167T539 282T552 417Q552 459 546 497T521 565T472 613T393 631Z" />
<glyph unicode="R" glyph-name="R" horiz-adv-x="573" d="M538 496Q530 435 495 386T400 319Q437 307 454 274T480 198L521 0H438L399 188Q385 254 348 276T258 298H170L134 0H53L137 685H365Q463 685 506 633T538 496ZM312 363Q331 363 354 368T397 387T433 427T454
492Q462 561 430 590T342 619H210L178 363H312Z" />
<glyph unicode="S" glyph-name="S" horiz-adv-x="556" d="M338 696Q380 696 428 688T516 653L484 593Q439 615 401 621T329 628Q300 628 274 621T228 598T196 560T182 504Q182 476 192 458T221 426T264 405T316 389Q349 380 383 369T445 338T491 286T509 205Q509
145 487 104T428 38T343 3T243 -8Q191 -8 138 3T35 45L65 107Q120 78 164 69T246 60Q284 60 316 66T372 88T409 127T425 188Q425 219 416 239T390 273T349 296T294 314Q254 325 219 338T156 370T113 419T97 491Q97 542 116 580T167 644T244 683T338 696Z" />
<glyph unicode="T" glyph-name="T" horiz-adv-x="546" d="M208 0L283 618H69L78 685H586L577 618H364L288 0H208Z" />
<glyph unicode="U" glyph-name="U" horiz-adv-x="645" d="M581 246Q574 189 555 142T502 62T420 10T306 -8Q173 -8 117 59T75 246L129 685H210L156 245Q144 151 182 104T304 57Q387 57 438 103T501 245L554 685H635L581 246Z" />
<glyph unicode="V" glyph-name="V" horiz-adv-x="537" d="M257 88L312 228L500 685H587L292 0H195L69 685H155L231 227L252 88H257Z" />
<glyph unicode="W" glyph-name="W" horiz-adv-x="812" d="M581 97Q597 145 613 191T644 286L671 365Q697 445 724 524T779 684H860Q796 499 735 328T616 0H522Q514 61 506 122T488 244Q487 251 484 275T478 327T471 379T466 410Q461 450 456 490T445 570H443Q429
529 416 490T390 409L332 243L251 0H148L68 684H153Q164 582 173 481T194 277Q198 232 201 187T210 97H212L269 266L325 428Q345 492 367 556T411 684H498Q500 668 505 635T515 560T527 473T539 387T549 315T555 271Q556 265 559 240T567 184T574 129T579 97H581V97Z"
/>
<glyph unicode="X" glyph-name="X" horiz-adv-x="540" d="M238 356Q199 438 160 520T79 684H172Q204 615 235 547T298 410Q346 479 394 547T491 684H583Q521 600 460 518T337 352Q379 263 421 176T507 0H415Q380 74 347 147T278 296L73 0H-17L238 356V356Z" />
<glyph unicode="Y" glyph-name="Y" horiz-adv-x="520" d="M224 296L69 685H152L221 505L272 366H276L367 511L481 685H568L311 300L275 0H188L224 296Z" />
<glyph unicode="Z" glyph-name="Z" horiz-adv-x="516" d="M105 685H521L529 621L105 69L479 68L471 0H8L3 64L426 617H96L105 685Z" />
<glyph unicode="[" glyph-name="bracketleft" horiz-adv-x="252" d="M7 -159L113 697H278Q276 683 275 670T271 643H177L85 -104H179Q177 -118 176 -131T172 -159H7Z" />
<glyph unicode="\" glyph-name="backslash" horiz-adv-x="323" d="M74 701H126L286 -28H233L74 701Z" />
<glyph unicode="]" glyph-name="bracketright" horiz-adv-x="252" d="M-13 -159Q-11 -145 -10 -132T-6 -104H87L179 643H85L91 697H257L152 -159H-13Z" />
<glyph unicode="^" glyph-name="asciicircum" horiz-adv-x="430" d="M369 381L266 618L105 381H42L249 682H295L426 381H369Z" />
<glyph unicode="_" glyph-name="underscore" horiz-adv-x="485" d="M-41 -132L-35 -85H449L443 -132H-41Z" />
<glyph unicode="`" glyph-name="grave" horiz-adv-x="484" d="M179 682L242 732L343 567L304 539L179 682Z" />
<glyph unicode="a" glyph-name="a" horiz-adv-x="512" d="M286 495Q318 495 348 490T409 476L417 496L476 493Q462 402 447 291T417 59L476 61L482 14Q456 2 434 -2T399 -6Q369 -6 357 7T344 43Q344 48 344 53T345 66L343 68Q301 32 255 13T172 -6Q112 -6 74 38T36
171Q36 224 50 281T94 385T171 464T286 495ZM284 431Q253 431 223 415T170 366T133 288T118 180Q118 112 141 85T199 57Q235 57 276 79T349 129L389 415Q362 424 336 427T284 431Z" />
<glyph unicode="b" glyph-name="b" horiz-adv-x="507" d="M38 42L121 728H200Q196 699 191 656T180 568T169 485T159 427L163 423Q207 457 252 475T334 494Q394 494 432 450T470 317Q470 264 456 207T412 103T335 24T220 -7Q128 -7 44 34L38 42ZM222 57Q253 57
283 73T336 122T373 200T388 308Q388 342 382 365T365 403T339 424T307 431Q271 431 230 409T156 359L120 78Q149 64 173 61T222 57Z" />
<glyph unicode="c" glyph-name="c" horiz-adv-x="430" d="M226 55Q261 55 294 62T365 85L383 35Q350 18 304 6T210 -7Q162 -7 130 6T77 42T47 98T37 170Q37 201 41 238T55 311T84 381T130 441T197 482T290 498Q371 498 427 461L402 411Q362 431 333 433T285 436Q243
436 212 415T159 359T128 277T117 181Q117 155 122 132T140 92T174 65T226 55Z" />
<glyph unicode="d" glyph-name="d" horiz-adv-x="496" d="M339 0L347 65L343 68Q301 32 256 13T173 -6Q113 -6 75 38T37 171Q37 224 51 281T95 385T172 464T287 495Q343 495 396 480L425 711H503L413 0H339ZM285 431Q254 431 224 415T171 366T134 288T119 180Q119
112 142 85T200 57Q236 57 277 79T351 129L388 415Q361 424 336 427T285 431Z" />
<glyph unicode="e" glyph-name="e" horiz-adv-x="462" d="M295 500Q329 500 354 491T395 465T420 426T429 378Q429 332 406 300T342 246T243 214T117 198Q116 192 116 186T116 173Q116 152 120 131T136 92T169 64T223 53Q261 53 297 62T371 88L389 40Q357 20 307
7T207 -7Q155 -7 122 8T70 49T44 110T37 184Q37 233 48 288T89 391T168 469T295 500ZM284 437Q213 437 172 387T121 248Q234 253 293 282T353 369Q353 399 337 418T284 437Z" />
<glyph unicode="f" glyph-name="f" horiz-adv-x="332" d="M187 428Q176 343 167 261T149 93Q141 35 131 -20T101 -118T46 -187T-46 -213Q-67 -213 -90 -210T-139 -200L-124 -146Q-101 -151 -86 -152T-56 -153Q-27 -153 -7 -142T26 -108T48 -54T63 22Q73 97 82
168T97 295T108 386T112 428H31L36 469L120 488L128 541Q142 632 182 681T303 730Q325 730 349 728T398 717L384 658Q364 663 345 665T312 667Q291 667 273 661T239 638T214 592T199 517L195 483H329L323 428H187Z" />
<glyph unicode="g" glyph-name="g" horiz-adv-x="509" d="M341 39Q342 46 343 51T345 61L341 65Q297 31 254 13T173 -6Q113 -6 75 38T37 171Q37 224 51 281T95 385T172 464T287 495Q334 495 376 485T461 454L467 446Q453 331 438 217T407 -11Q402 -44 391 -80T354
-147T283 -197T167 -217Q124 -217 86 -205T24 -182L48 -124Q74 -137 109 -145T175 -153Q223 -153 253 -138T302 -97T328 -35T341 39ZM285 431Q254 431 224 415T171 366T134 288T119 180Q119 112 142 85T200 57Q236 57 277 79T351 129L387 409Q358 423 333 427T285
431Z" />
<glyph unicode="h" glyph-name="h" horiz-adv-x="505" d="M343 0L381 342Q382 349 382 355T383 367Q383 404 368 418T324 432Q291 432 247 413T157 350L116 0H36L123 730H202Q188 629 180 549T161 416L164 414Q214 460 266 479T354 499Q386 499 407 491T440 470T458
437T463 397Q463 389 463 380T461 362L421 0H343Z" />
<glyph unicode="i" glyph-name="i" horiz-adv-x="239" d="M47 0L106 487H186L126 0H47ZM164 670Q184 670 197 656T211 622Q211 599 196 582T155 564Q136 564 123 577T109 610Q109 635 125 652T164 670Z" />
<glyph unicode="j" glyph-name="j" horiz-adv-x="270" d="M215 487Q212 461 208 423T199 343T190 258T181 179T174 119T170 88Q163 29 151 -21T116 -112T55 -179T-43 -220L-60 -163Q-13 -145 15 -120T58 -65T80 2T92 78L136 487H215ZM193 670Q213 670 226 656T240
622Q240 599 225 582T184 564Q165 564 152 577T138 610Q138 635 154 652T193 670Z" />
<glyph unicode="k" glyph-name="k" horiz-adv-x="446" d="M154 281Q208 332 262 384T371 488H460Q410 440 355 387T248 286L271 262L419 0H334Q302 62 267 123T200 247L140 192L117 0H40L127 710H204L166 397Q162 369 159 344T149 284L154 281Z" />
<glyph unicode="l" glyph-name="l" horiz-adv-x="238" d="M208 728Q204 694 198 640T184 523T168 391T152 260T138 146T128 65L193 67L199 12Q177 0 150 -6T105 -12Q75 -12 63 1T50 43Q50 49 50 55T52 70L131 728H208Z" />
<glyph unicode="m" glyph-name="m" horiz-adv-x="772" d="M324 0L364 351Q365 357 365 362T365 373Q365 407 350 419T304 432Q277 432 240 413T158 350L117 0H37Q53 123 67 248T96 488H172Q169 468 167 452T162 420L165 418Q219 463 263 481T334 499Q363 499 382
492T414 473T433 445T441 411Q466 434 492 450T542 478T585 494T619 499Q652 499 673 491T707 468T724 435T729 393Q729 385 729 378T727 362L687 0H609L649 351Q650 357 650 362T650 373Q650 407 635 419T589 432Q562 432 523 414T439 352L402 0H324Z" />
<glyph unicode="n" glyph-name="n" horiz-adv-x="507" d="M344 0L384 351Q385 357 385 362T385 373Q385 407 370 419T320 432Q287 432 245 413T158 350L117 0H37Q52 123 67 242T96 488H172Q169 468 167 452T162 420L165 418Q219 463 267 481T350 499Q383 499 405
491T440 468T458 435T464 393Q464 385 464 378T462 362L422 0H344Z" />
<glyph unicode="o" glyph-name="o" horiz-adv-x="496" d="M278 434Q228 434 197 407T148 339T124 254T117 174Q117 150 122 129T139 90T172 63T225 53Q273 53 303 79T351 143T374 223T381 299Q381 325 377 349T360 392T328 422T278 434ZM281 498Q331 498 366 482T422
439T453 375T463 299Q463 250 452 196T412 97T336 23T217 -7Q166 -7 132 8T76 49T46 109T37 184Q37 238 50 293T92 394T167 469T281 498Z" />
<glyph unicode="p" glyph-name="p" horiz-adv-x="508" d="M174 487Q172 470 170 454T164 422L168 419Q210 455 256 474T339 493Q399 493 437 449T475 316Q475 263 461 206T417 102T340 23T225 -8Q167 -8 115 7Q111 -31 108 -59T101 -111T95 -157T89 -207H11L99
487H174ZM227 56Q258 56 288 72T341 121T378 199T393 307Q393 341 387 364T370 402T344 423T312 430Q276 430 235 408T161 358L124 72Q151 63 176 60T227 56Z" />
<glyph unicode="q" glyph-name="q" horiz-adv-x="516" d="M308 -208Q312 -176 316 -136T326 -58T336 11T345 60L341 64Q297 30 252 12T170 -7Q110 -7 72 37T34 170Q34 223 48 280T92 384T169 463T284 494Q376 494 460 453L466 445L387 -208H308ZM282 430Q251 430
221 414T168 365T131 287T116 179Q116 111 139 84T197 56Q233 56 274 78T348 128L384 409Q355 423 331 426T282 430Z" />
<glyph unicode="r" glyph-name="r" horiz-adv-x="327" d="M176 488Q173 461 172 444T166 403H169Q198 445 226 470T291 496Q311 496 328 489T359 460L335 406Q312 412 292 412Q244 412 213 386T164 321L125 0H47Q61 112 76 237T105 488H176V488Z" />
<glyph unicode="s" glyph-name="s" horiz-adv-x="427" d="M39 84Q82 64 120 59T184 54Q206 54 227 58T265 71T292 95T303 132Q303 154 294 168T270 193T234 212T189 228Q165 237 142 247T101 272T72 306T61 355Q61 393 76 420T118 464T177 489T246 497Q261 497
279 495T315 489T352 478T384 462L359 410Q323 425 296 429T244 434Q228 434 210 431T175 419T149 395T138 356Q138 341 148 330T172 311T203 296T234 285Q256 277 281 268T327 242T363 203T378 146Q378 104 362 75T318 28T253 2T174 -6Q132 -6 87 4T14 32L39 84Z"
/>
<glyph unicode="t" glyph-name="t" horiz-adv-x="350" d="M200 433Q190 359 181 285T162 136Q161 131 161 127T161 118Q161 91 172 75T217 59Q231 59 256 62T311 74L323 21Q308 15 291 10T256 2T222 -3T194 -5Q142 -5 111 16T79 89Q79 93 79 97T80 105Q91 190
100 271T120 433H50L54 476L130 494L169 603L220 611L205 488H348L342 433H200V433Z" />
<glyph unicode="u" glyph-name="u" horiz-adv-x="479" d="M158 488L118 137Q117 131 117 126T117 115Q117 81 132 69T182 56Q215 56 255 75T340 138L383 488H459Q451 427 444 368T430 250T416 129T402 0H330L338 68L335 70Q281 25 234 7T152 -11Q119 -11 97 -3T62
20T44 53T38 95Q38 103 38 110T40 126L80 488H158Z" />
<glyph unicode="v" glyph-name="v" horiz-adv-x="444" d="M139 0Q111 122 85 243T32 487H113Q125 423 139 362T164 237L194 69H199Q203 76 211 94T229 136T252 190T279 250Q296 289 314 330T348 407T375 469T390 503L462 482Q404 360 348 241T235 0H139V0Z" />
<glyph unicode="w" glyph-name="w" horiz-adv-x="687" d="M475 81L528 230L633 503L701 483L507 0H421L379 224L351 392H346L283 224L193 0H106L32 488H107L142 234L161 81H166L225 240L324 488H400L447 229L470 81H475Z" />
<glyph unicode="x" glyph-name="x" horiz-adv-x="447" d="M221 209L55 -27L-10 6L182 252L63 488H151L235 301L377 506L444 476L273 257L402 0H317L221 209Z" />
<glyph unicode="y" glyph-name="y" horiz-adv-x="429" d="M195 57Q199 66 219 111T267 222T327 362T388 503L456 485Q395 345 330 198T203 -89Q178 -147 142 -181T51 -215Q40 -214 16 -213T-50 -198L-33 -141Q-7 -147 10 -149T43 -152Q71 -152 93 -138T132 -84L170
3H130Q107 125 85 246T40 488H119Q128 435 139 370T160 242T179 130T190 57H195V57Z" />
<glyph unicode="z" glyph-name="z" horiz-adv-x="433" d="M92 488H408L420 437L102 60H387L380 0H11L2 47L325 428H85L92 488Z" />
<glyph unicode="{" glyph-name="braceleft" horiz-adv-x="257" d="M151 -169Q97 -169 77 -148T57 -85Q57 -80 57 -75T58 -64Q66 -7 72 51T87 167Q90 186 90 203Q90 229 76 246T36 272L42 317Q83 328 97 353T119 428L138 577Q140 595 146 617T164 657T196 689T246
702H296L288 648H264Q246 648 236 642T220 626T212 603T208 573L189 415Q187 396 182 377T169 342T147 313T116 296Q143 281 153 261T163 214Q163 196 160 175L132 -50Q131 -58 131 -64T131 -78Q133 -94 139 -104T166 -115H195L189 -169H151Z" />
<glyph unicode="|" glyph-name="bar" horiz-adv-x="236" d="M89 -139V700H144V-139H89Z" />
<glyph unicode="}" glyph-name="braceright" horiz-adv-x="257" d="M121 703Q175 703 195 682T215 619Q215 614 215 609T214 598Q210 569 207 548T201 506T195 464T188 413Q185 393 185 377Q185 351 199 334T239 308L233 263Q192 252 178 227T156 152L134 -43Q132
-61 126 -83T108 -123T76 -155T26 -168H-24L-16 -114H8Q26 -114 36 -108T52 -92T60 -69T64 -39L86 165Q88 184 93 203T106 238T128 267T159 284Q132 299 122 319T112 366Q112 384 115 405L140 584Q141 592 141 598T141 612Q139 628 133 638T106 649H77L83 703H121Z"
/>
<glyph unicode="~" glyph-name="asciitilde" horiz-adv-x="542" d="M378 247Q349 247 323 254T274 270T229 286T188 294L111 247L82 275Q103 314 134 337T202 360Q225 360 251 353T303 337T354 321T398 313L470 361L499 334Q479 296 448 272T378 247Z" />
</font>
</defs>
</svg>
